<svg width="20" height="21" viewBox="0 0 20 21" fill="none" xmlns="http://www.w3.org/2000/svg">
<path d="M19.6865 0.135862C19.8023 0.21224 19.8927 0.321393 19.9461 0.449381C19.9996 0.577369 20.0137 0.718384 19.9866 0.854418L19.9874 0.85025L17.1315 17.9889C17.1139 18.0934 17.073 18.1927 17.0118 18.2792C16.9506 18.3658 16.8707 18.4375 16.7781 18.489L16.7748 18.4907C16.6716 18.5494 16.555 18.5801 16.4363 18.5799H16.428C16.3346 18.5778 16.2424 18.5583 16.1562 18.5224L16.1612 18.5241L10.2811 16.1233L6.95588 19.7719C6.89408 19.8453 6.817 19.9043 6.73003 19.9447C6.64307 19.9852 6.54831 20.0062 6.45239 20.0062H6.43072H6.43155H6.40988C6.32786 20.0063 6.24661 19.9904 6.17064 19.9595L6.17481 19.9612C6.03935 19.9124 5.92308 19.8216 5.84304 19.7019L5.84137 19.6994C5.76113 19.5808 5.71844 19.4408 5.71883 19.2976V14.2502L0.450532 12.0971C0.321816 12.0536 0.20978 11.9712 0.129894 11.8613C0.0500084 11.7514 0.00621455 11.6194 0.00456012 11.4835C-0.011196 11.3512 0.0140988 11.2172 0.0770192 11.0997C0.13994 10.9822 0.237446 10.8869 0.356336 10.8267L0.35967 10.825L18.9279 0.113355C19.0406 0.035841 19.175 -0.00376501 19.3117 0.000281964C19.4484 0.00432893 19.5803 0.0518185 19.6882 0.135862L19.6865 0.135029V0.135862ZM15.8703 16.8619L18.3377 2.0998L2.33612 11.3277L6.08561 12.8565L15.7144 5.72676L10.3794 14.6195L15.8703 16.8619Z" fill="#F8F8F8"/>
</svg>
