<svg width="20" height="20" viewBox="0 0 20 20" fill="none" xmlns="http://www.w3.org/2000/svg">
<path fill-rule="evenodd" clip-rule="evenodd" d="M0 0H20V20H0V0ZM4.58333 14.8458C4.58333 14.9875 4.60708 15.1271 4.6525 15.2587C3.27082 13.8575 2.49739 11.9679 2.5 10C2.5 5.85792 5.85792 2.5 10 2.5C14.1421 2.5 17.5 5.85792 17.5 10C17.5 12.0517 16.6762 13.9113 15.3412 15.265C15.4064 15.087 15.4301 14.8965 15.4105 14.7079C15.391 14.5194 15.3286 14.3378 15.2282 14.177C15.1279 14.0162 14.9921 13.8804 14.8313 13.78C14.6705 13.6795 14.489 13.6171 14.3004 13.5975C11.0679 13.2629 8.95208 13.2308 5.70375 13.59C5.39511 13.6248 5.11014 13.7722 4.90341 14.004C4.69668 14.2358 4.58271 14.5357 4.58333 14.8462V14.8458ZM1.66667 10C1.66667 14.4883 5.21542 18.1483 9.66 18.3267C9.75407 18.3319 9.84829 18.3339 9.9425 18.3329L10 18.3333C14.6025 18.3333 18.3333 14.6025 18.3333 10C18.3333 5.3975 14.6025 1.66667 10 1.66667C5.3975 1.66667 1.66667 5.3975 1.66667 10ZM10 11.6667C10.8841 11.6667 11.7319 11.3155 12.357 10.6904C12.9821 10.0652 13.3333 9.21739 13.3333 8.33333C13.3333 7.44928 12.9821 6.60143 12.357 5.97631C11.7319 5.35119 10.8841 5 10 5C9.11594 5 8.2681 5.35119 7.64298 5.97631C7.01786 6.60143 6.66667 7.44928 6.66667 8.33333C6.66667 9.21739 7.01786 10.0652 7.64298 10.6904C8.2681 11.3155 9.11594 11.6667 10 11.6667V11.6667Z" fill="black"/>
</svg>
